<svg width="49" height="49" viewBox="0 0 49 49" fill="none" xmlns="http://www.w3.org/2000/svg">
<g clip-path="url(#clip0_890_14871)">
<path d="M24 0C10.8 0 0 10.8 0 24.1C0 37.4 10.8 48.1 24.1 48.1C37.4 48.1 48.1 37.3 48.1 24.1C48.1 10.8 37.3 0 24 0ZM6.3 27.6C5.4 26.7 5.4 25.3 6.3 24.5L24.5 6.2C25.4 5.4 26.8 5.5 27.6 6.4C28.3 7.2 28.3 8.5 27.6 9.3L9.4 27.6C8.5 28.4 7.1 28.4 6.3 27.6ZM13.4 34.7C12.5 33.8 12.5 32.4 13.4 31.6L31.6 13.4C32.5 12.6 33.9 12.7 34.7 13.6C35.4 14.4 35.4 15.7 34.7 16.5L16.5 34.7C15.7 35.6 14.3 35.6 13.4 34.7ZM23.7 41.9C22.9 42.8 21.5 42.9 20.6 42.1C19.7 41.3 19.6 39.9 20.4 39C20.5 38.9 20.5 38.9 20.6 38.8L38.8 20.6C39.7 19.8 41.1 19.9 41.9 20.8C42.6 21.6 42.6 22.9 41.9 23.7L23.7 41.9Z" fill="#4EB857"/>
</g>
<defs>
<clipPath id="clip0_890_14871">
<rect width="48.1" height="48.1" fill="white"/>
</clipPath>
</defs>
</svg>
