<svg width="14" height="14" viewBox="0 0 14 14" fill="none" xmlns="http://www.w3.org/2000/svg">
<path d="M12.3594 1H1.64062C0.735984 1 0 1.73598 0 2.64062V3.994L6.02085 8.47239C6.31367 8.69018 6.65684 8.79909 7 8.79909C7.34316 8.79909 7.68633 8.69021 7.97915 8.47239L14 3.994V2.64062C14 1.73598 13.264 1 12.3594 1ZM12.9062 3.44442L7.3264 7.59477C7.13117 7.73999 6.86883 7.73999 6.67362 7.59477L1.09375 3.44442V2.64062C1.09375 2.33908 1.33908 2.09375 1.64062 2.09375H12.3594C12.6609 2.09375 12.9062 2.33908 12.9062 2.64062V3.44442ZM12.9062 6.17068L14 5.35714V10.7344C14 11.639 13.264 12.375 12.3594 12.375H1.64062C0.735984 12.375 0 11.639 0 10.7344V5.35714L1.09375 6.17068V10.7344C1.09375 11.0359 1.33908 11.2812 1.64062 11.2812H12.3594C12.6609 11.2812 12.9062 11.0359 12.9062 10.7344V6.17068Z" fill="white"/>
</svg>
