<svg width="14" height="14" viewBox="0 0 14 14" fill="none" xmlns="http://www.w3.org/2000/svg">
<g clip-path="url(#clip0_913_3)">
<path d="M13.5497 10.0772C13.5249 10.0567 10.7301 8.05653 9.97173 8.18767C9.60727 8.25207 9.39867 8.50033 8.981 8.99827C8.9138 9.07853 8.75187 9.27033 8.6268 9.40707C8.36282 9.32106 8.10534 9.21626 7.85633 9.09347C6.57091 8.46767 5.53233 7.42909 4.90653 6.14367C4.78374 5.89466 4.67894 5.63718 4.59293 5.3732C4.73013 5.24767 4.9224 5.08573 5.00453 5.01667C5.49967 4.60133 5.74793 4.39273 5.81233 4.0278C5.9444 3.27227 3.94333 0.475067 3.9228 0.449867C3.83167 0.320626 3.71298 0.213231 3.57531 0.135435C3.43763 0.0576376 3.28439 0.0113797 3.12667 0C2.3156 0 0 3.00347 0 3.5098C0 3.5392 0.0424667 6.52773 3.72773 10.2765C7.47227 13.9575 10.4608 14 10.4902 14C10.9965 14 14 11.6844 14 10.8733C13.9886 10.7156 13.9423 10.5623 13.8644 10.4246C13.7866 10.2869 13.679 10.1682 13.5497 10.0772ZM10.4389 13.0639C10.031 13.0303 7.52313 12.6994 4.3876 9.61893C1.29127 6.4666 0.9688 3.95173 0.9366 3.56207C1.5483 2.60197 2.28704 1.72901 3.13273 0.966933C3.1514 0.9856 3.17613 1.0136 3.20787 1.05C3.85645 1.93537 4.41517 2.88319 4.87573 3.8794C4.72596 4.03007 4.56766 4.17202 4.4016 4.30453C4.14409 4.50074 3.90763 4.72313 3.696 4.96813L3.5826 5.1268L3.6162 5.3186C3.71496 5.74641 3.86622 6.16037 4.06653 6.55107C4.78421 8.02481 5.97509 9.21552 7.44893 9.933C7.83956 10.1336 8.25353 10.285 8.6814 10.3838L8.8732 10.4174L9.03187 10.304C9.27779 10.0914 9.50111 9.85404 9.69827 9.5956C9.84433 9.42107 10.0399 9.1882 10.1136 9.1224C11.1126 9.58251 12.0629 10.1419 12.95 10.7921C12.9887 10.8248 13.0158 10.85 13.034 10.8663C12.272 11.7123 11.3991 12.4512 10.4389 13.0629V13.0639Z" fill="white"/>
</g>
<defs>
<clipPath id="clip0_913_3">
<rect width="14" height="14" fill="white"/>
</clipPath>
</defs>
</svg>
